<svg height="512" viewBox="0 0 512 512" width="512" xmlns="http://www.w3.org/2000/svg"><g id="Filled_outline" data-name="Filled outline"><path d="m488 384v64a24.006 24.006 0 0 1 -24 24h-416a24.007 24.007 0 0 1 -24-24v-64z" fill="#eedabf"/><path d="m488 384v64a24.006 24.006 0 0 1 -24 24h-416a23.881 23.881 0 0 1 -11.65-3.02l110.9-84.98z" fill="#e5d2b8"/><path d="m488 296v88h-36a19.994 19.994 0 0 0 -20 20v8a20 20 0 0 1 -40 0v-8a20 20 0 0 0 -40 0v48a20 20 0 0 1 -40 0v-48a19.994 19.994 0 0 0 -20-20h-268v-88z" fill="#572b19"/><path d="m488 296v88h-36a19.994 19.994 0 0 0 -20 20v8a20 20 0 0 1 -40 0v-8a20 20 0 0 0 -40 0v48a20 20 0 0 1 -40 0v-48a19.994 19.994 0 0 0 -20-20h-144.75l114.85-88z" fill="#4f2816"/><path d="m24 208v88h52a20 20 0 0 1 20 20v16a20 20 0 0 0 20 20 20 20 0 0 0 20-20v-16a20 20 0 0 1 20-20h332v-88z" fill="#6e3c26"/><path d="m24 208 304-152h8a152 152 0 0 1 152 152z" fill="#7a432a"/><path d="m440 88a47.991 47.991 0 1 1 -23.72-41.41 48 48 0 0 1 23.72 41.41z" fill="#f35244"/><path d="m264 296 112-88h112v88z" fill="#693924"/><path d="m440 88a48.008 48.008 0 0 1 -94.9 10.28 56.062 56.062 0 0 0 71.18-51.69 47.966 47.966 0 0 1 23.72 41.41z" fill="#e64c3f"/><path d="m447.729 93.475c.176-1.8.271-3.628.271-5.475a55.964 55.964 0 0 0 -95.949-39.192c-5.324-.529-10.704-.808-16.051-.808h-8a7.994 7.994 0 0 0 -3.578.845l-304 152a8 8 0 0 0 -4.417 7.155v88a8 8 0 0 0 8 8h51.995a12.013 12.013 0 0 1 12 12v16a28 28 0 0 0 56 0v-16a12.013 12.013 0 0 1 12-12h324v72h-28a28.032 28.032 0 0 0 -28 28v8a12 12 0 0 1 -24 0v-8a28 28 0 0 0 -56 0v48a12 12 0 0 1 -24 0v-48a28.032 28.032 0 0 0 -28-28h-260v-48h-16v120a32.036 32.036 0 0 0 32 32h240v-16h-240a16.019 16.019 0 0 1 -16-16v-56h260a12.013 12.013 0 0 1 12 12v48a28 28 0 0 0 56 0v-48a12 12 0 0 1 24 0v8a28 28 0 0 0 56 0v-8a12.013 12.013 0 0 1 12-12h28v56a16.019 16.019 0 0 1 -16 16h-88v16h88a32.036 32.036 0 0 0 32-32v-240a160.518 160.518 0 0 0 -48.271-114.525zm-55.729-45.475a40 40 0 1 1 -40 40 40.045 40.045 0 0 1 40-40zm-62.111 16h6.111c1.786 0 3.575.043 5.365.109a55.986 55.986 0 1 0 101.463 47.356 144.585 144.585 0 0 1 36.947 88.535h-421.886zm-173.889 224a28.032 28.032 0 0 0 -28 28v16a12 12 0 0 1 -24 0v-16a28.032 28.032 0 0 0 -28-28h-44v-72h448v72zm182.343-157.657 11.314 11.314-24 24-11.314-11.314zm-48 3.314-24-24 11.314-11.314 24 24zm-84.686 12.686 24 24-11.314 11.314-24-24zm52.686-24 11.314 11.314-24 24-11.314-11.314zm203.314 51.314-24 24-11.314-11.314 24-24zm-109.657-5.657h32v16h-32zm-208 0h32v16h-32zm128 0h32v16h-32z"/></g></svg>